<svg id="a" xmlns="http://www.w3.org/2000/svg" viewBox="0 0 176 130">
<defs>
<style>.b{fill:#e2231a;}.c{fill:#fff;}</style>
</defs>
<rect class="b" width="176" height="130"/>
<path class="c" d="M32.24,27.21h-4.34s-3.93,0-3.93,0h-1.31c-.12,0-.22.1-.22.22v16.3s0,2.33,0,2.33v16.3c0,.12.1.22.22.22h5.24c.12,0,.22-.1.22-.22v-12.58s4.12,0,4.12,0c3.51,0,6.35-2.85,6.35-6.35v-4.94s0-4.94,0-4.94c0-3.51-2.84-6.35-6.35-6.35ZM32.91,37.36v2.29s0,2.97,0,2.97c0,.82-.67,1.49-1.49,1.49h-3.3s0-.37,0-.37v-4.09s0-2.29,0-2.29v-4.46s3.3,0,3.3,0c.82,0,1.49.67,1.49,1.49v2.97Z"/><path class="c" d="M85.16,27.21h-5.24c-.11,0-.2.08-.22.19l-2.59,18.38-2.64-18.38c-.02-.11-.11-.19-.22-.19h-4.43c-.11,0-.2.08-.21.19l-2.64,18.38-2.59-18.38c-.02-.11-.11-.19-.22-.19h-5.24c-.06,0-.12.03-.16.08-.04.05-.06.11-.05.17l5.05,34.94c.02.11.11.19.22.19h5.08c.11,0,.2-.08.22-.19l2.78-18.36,2.78,18.36c.02.11.11.19.21.19h5.08c.11,0,.2-.08.22-.19l5.05-34.94c0-.06,0-.13-.05-.17-.04-.05-.1-.08-.17-.08Z"/><path class="c" d="M49.11,26.57c-5.05,0-8.45,3.37-8.45,8.39v19.87c0,5.02,3.39,8.39,8.45,8.39,5.05,0,8.45-3.37,8.45-8.39v-19.87c0-5.02-3.39-8.39-8.45-8.39ZM46.35,35.12c0-1.74,1.08-2.87,2.76-2.87,1.68,0,2.76,1.13,2.76,2.87v19.55c0,1.74-1.08,2.87-2.76,2.87s-2.76-1.12-2.76-2.87v-19.55Z"/><path class="c" d="M101.64,27.21h-14.03c-.12,0-.22.1-.22.22v34.94c0,.12.1.22.22.22h14.03c.12,0,.22-.1.22-.22v-5.27c0-.12-.1-.22-.22-.22h-8.57s0-9.88,0-9.88h5.97c.12,0,.22-.1.22-.22v-4.98c0-.12-.1-.22-.22-.22h-5.97s0-8.68,0-8.68h8.57c.12,0,.22-.1.22-.22v-5.25c0-.12-.1-.22-.22-.22Z"/><path class="c" d="M117.6,56.88h-8.06s0-29.45,0-29.45c0-.12-.1-.22-.22-.22h-5.24c-.12,0-.22.1-.22.22v34.94c0,.12.1.22.22.22h13.52c.12,0,.22-.1.22-.22v-5.27c0-.12-.1-.22-.22-.22Z"/><path class="c" d="M133.57,56.88h-8.06s0-29.45,0-29.45c0-.12-.1-.22-.22-.22h-5.24c-.12,0-.22.1-.22.22v34.94c0,.12.1.22.22.22h13.52c.12,0,.22-.1.22-.22v-5.27c0-.12-.1-.22-.22-.22Z"/><path class="c" d="M146.45,41.74c-2.94-3.09-3.83-4.02-3.91-6.57v-.39c0-1.39,1.13-2.53,2.53-2.53,1.5,0,2.65,1.13,2.65,2.53v2.87c0,.12.1.22.22.22h5.13c.12,0,.22-.1.22-.22v-2.76c0-4.97-3.21-8.31-8-8.31-5.11,0-8.42,3.47-8.42,8.83,0,3.44,2.05,7.09,6.43,11.48,2.91,3.06,4.55,4.94,4.55,7.86,0,1.74-1.1,2.78-2.94,2.78-2.18,0-2.64-1.68-2.64-3.09v-2.25c0-.12-.1-.22-.22-.22h-5.23c-.12,0-.22.1-.22.22v2.7c0,5.13,3.24,8.31,8.47,8.31,5.07,0,8.47-3.57,8.47-8.89,0-4.69-2.9-8.15-6.14-11.57-.34-.37-.67-.7-.97-1.02Z"/><path class="c" d="M134.52,27.22h-5.25c-.12,0-.22.1-.22.22v5.24c0,.12.1.22.22.22h2.98s0,.47,0,.47c0,.88-.65,1.64-1.55,1.79h-.06c-.1.03-.18.12-.18.23v1.12c0,.12.1.22.22.22h.08c1.48,0,3.99-.89,3.99-4.22v-5.06c0-.12-.1-.22-.22-.22Z"/><path class="c" d="M69.17,66.77c-5.05,0-8.45,3.37-8.45,8.4v19.86c0,5.02,3.4,8.39,8.45,8.39,5.05,0,8.45-3.37,8.45-8.39v-19.86c0-5.02-3.39-8.4-8.45-8.4ZM66.41,75.33c0-1.74,1.08-2.87,2.76-2.87s2.76,1.13,2.76,2.87v19.55c0,1.74-1.09,2.87-2.76,2.87-1.68,0-2.76-1.13-2.76-2.87v-19.55Z"/><path class="c" d="M88.27,66.77c-5.05,0-8.44,3.37-8.44,8.4v19.86c0,5.02,3.39,8.39,8.44,8.39,5.05,0,8.45-3.37,8.45-8.39v-19.86c0-5.02-3.4-8.4-8.45-8.4ZM85.51,75.33c0-1.74,1.08-2.87,2.76-2.87s2.76,1.13,2.76,2.87v19.55c0,1.74-1.08,2.87-2.76,2.87s-2.76-1.13-2.76-2.87v-19.55Z"/><path class="c" d="M110.62,83.28l5.47-15.57c.02-.07.01-.14-.03-.2-.04-.06-.11-.09-.18-.09h-5.33c-.09,0-.18.06-.21.15l-5.74,16.34v-16.27c0-.12-.1-.22-.22-.22h-5.24c-.12,0-.22.1-.22.22v34.94c0,.12.1.22.22.22h5.24c.12,0,.22-.1.22-.22v-8.34s1.85-5.26,1.85-5.26l3.9,13.66c.03.09.11.16.21.16h5.34c.07,0,.13-.03.17-.09.04-.05.06-.13.04-.19l-5.49-19.23Z"/><path class="c" d="M126.2,81.94c-2.94-3.09-3.83-4.02-3.91-6.57v-.39c0-1.39,1.13-2.53,2.53-2.53,1.5,0,2.65,1.13,2.65,2.53v2.87c0,.12.1.22.22.22h5.14c.12,0,.22-.1.22-.22v-2.76c0-4.97-3.22-8.31-8-8.31-5.11,0-8.42,3.47-8.42,8.83,0,3.44,2.05,7.09,6.43,11.48,2.91,3.06,4.56,4.94,4.56,7.86,0,1.74-1.1,2.78-2.94,2.78-2.19,0-2.64-1.68-2.64-3.09v-2.25c0-.12-.1-.22-.22-.22h-5.23c-.12,0-.22.1-.22.22v2.7c0,5.13,3.24,8.32,8.47,8.32,5.07,0,8.47-3.57,8.47-8.89,0-4.69-2.9-8.15-6.14-11.57-.35-.37-.67-.71-.97-1.02Z"/><path class="c" d="M55.01,84.22c2.05-.33,3.68-2.1,3.68-4.23v-6.33c0-3.44-2.8-6.24-6.24-6.24h-9.54c-.12,0-.22.1-.22.22v34.94c0,.12.1.22.22.22h9.89c3.44,0,6.24-2.8,6.24-6.25v-4.15s0-3.82,0-3.82v-.09c0-2.18-1.89-3.98-4.04-4.25ZM48.36,73.05h3.09c.95,0,1.72.77,1.72,1.72v4.45c0,1.11-.9,2.01-2.01,2.01h-2.8s0-8.18,0-8.18ZM53.39,95.05c0,1.11-.9,2.01-2.01,2.01h-3.02s0-9.96,0-9.96h3.31c.95,0,1.72.77,1.72,1.72v6.23Z"/>
</svg>
